<svg width="108" height="56" viewBox="0 0 108 56" fill="none" xmlns="http://www.w3.org/2000/svg">
<g clip-path="url(#clip0_301_18288)">
<path d="M107.655 18.6985L106.594 11.043L98.9873 12.1168" stroke="#005A9F" stroke-miterlimit="10" stroke-linecap="round"/>
<path d="M106.594 11.043C106.594 11.043 94.1986 33.2545 58.2583 27.2478" stroke="#005A9F" stroke-miterlimit="10" stroke-linecap="round"/>
<path d="M85.5371 32.8246C92.2897 31.141 97.5195 28.1135 101.261 25.2383" stroke="#005A9F" stroke-miterlimit="10" stroke-linecap="round"/>
<path d="M0.344727 45.982C0.344727 45.982 13.4778 24.2 49.1976 31.426" stroke="#005A9F" stroke-miterlimit="10" stroke-linecap="round"/>
<path d="M22.1184 24.9277C15.3107 26.3757 9.98438 29.2301 6.15332 31.9736" stroke="#005A9F" stroke-miterlimit="10" stroke-linecap="round"/>
<path d="M68.3593 2.69531H37.1045V55.6539H77.5304V11.9166L68.3593 2.69531Z" fill="#005A9F" stroke="#005A9F" stroke-linecap="round" stroke-linejoin="round"/>
<path d="M73.734 53.3122H33.3081V0.34668H64.5629L73.734 9.57494V53.3122Z" fill="white" stroke="#005A9F" stroke-linejoin="round"/>
<path d="M38.5034 14.4873H45.3662" stroke="#005A9F" stroke-linejoin="round"/>
<path d="M38.5034 21.1592H68.5386" stroke="#005A9F" stroke-linejoin="round"/>
<path d="M38.5034 27.8379H68.5386" stroke="#005A9F" stroke-linejoin="round"/>
<path d="M38.5034 34.5088H68.5386" stroke="#005A9F" stroke-linejoin="round"/>
<path d="M38.5034 41.1875H68.5386" stroke="#005A9F" stroke-linejoin="round"/>
<path d="M73.7341 9.57494H64.563V0.34668L73.7341 9.57494Z" fill="white" stroke="#005A9F" stroke-linejoin="round"/>
</g>
<defs>
<clipPath id="clip0_301_18288">
<rect width="108" height="56" fill="white"/>
</clipPath>
</defs>
</svg>
