<!-- todo include in muc-patternlab-vue -->
<svg style="display: none;">
    <symbol viewBox="0 0 24 24" id="icon-pencil"><path d="M20.71,7.04C21.1,6.65 21.1,6 20.71,5.63L18.37,3.29C18,2.9 17.35,2.9 16.96,3.29L15.12,5.12L18.87,8.87M3,17.25V21H6.75L17.81,9.93L14.06,6.18L3,17.25Z"/></symbol>
    <symbol viewBox="0 0 24 24" id="icon-dots-vertical"><path d="M12,16A2,2 0 0,1 14,18A2,2 0 0,1 12,20A2,2 0 0,1 10,18A2,2 0 0,1 12,16M12,10A2,2 0 0,1 14,12A2,2 0 0,1 12,14A2,2 0 0,1 10,12A2,2 0 0,1 12,10M12,4A2,2 0 0,1 14,6A2,2 0 0,1 12,8A2,2 0 0,1 10,6A2,2 0 0,1 12,4Z" /></symbol>
    <symbol viewBox="0 0 24 24" id="icon-circle-off-outline"><path d="M22.11 21.46L2.39 1.73L1.11 3L4.06 5.95C2.78 7.63 2 9.72 2 12C2 17.5 6.5 22 12 22C14.28 22 16.37 21.23 18.05 19.94L20.84 22.73L22.11 21.46M12 20C7.58 20 4 16.42 4 12C4 10.27 4.56 8.68 5.5 7.38L16.62 18.5C15.32 19.45 13.73 20 12 20M8.17 4.97L6.72 3.5C8.25 2.56 10.06 2 12 2C17.5 2 22 6.5 22 12C22 13.94 21.44 15.75 20.5 17.28L19.03 15.83C19.65 14.69 20 13.39 20 12C20 7.58 16.42 4 12 4C10.61 4 9.31 4.35 8.17 4.97Z"/></symbol>
    <symbol viewBox="0 0 24 24" id="icon-account"><path d="M12,4A4,4 0 0,1 16,8A4,4 0 0,1 12,12A4,4 0 0,1 8,8A4,4 0 0,1 12,4M12,14C16.42,14 20,15.79 20,18V20H4V18C4,15.79 7.58,14 12,14Z"/></symbol>
    <symbol viewBox="0 0 24 24" id="icon-copy"><path d="M8.40952 18.7936C7.80219 18.7936 7.28308 18.5782 6.8522 18.1473C6.42131 17.7164 6.20587 17.1973 6.20587 16.59V3.53922C6.20587 2.9293 6.42131 2.40799 6.8522 1.97527C7.28308 1.54254 7.80219 1.32617 8.40952 1.32617H18.4603C19.0702 1.32617 19.5915 1.54254 20.0242 1.97527C20.457 2.40799 20.6733 2.9293 20.6733 3.53922V16.59C20.6733 17.1973 20.457 17.7164 20.0242 18.1473C19.5915 18.5782 19.0702 18.7936 18.4603 18.7936H8.40952ZM8.40952 16.59H18.4603V3.53922H8.40952V16.59ZM4.53922 22.6733C3.9293 22.6733 3.40798 22.457 2.97525 22.0242C2.54253 21.5915 2.32617 21.0702 2.32617 20.4603V5.20587H4.53922V20.4603H16.7936V22.6733H4.53922Z"/></symbol>
    <symbol viewBox="0 0 24 24" id="icon-printer"><path d="M19 8C20.66 8 22 9.34 22 11V17H18V21H6V17H2V11C2 9.34 3.34 8 5 8H6V3H18V8H19M8 5V8H16V5H8M16 19V15H8V19H16M18 15H20V11C20 10.45 19.55 10 19 10H5C4.45 10 4 10.45 4 11V15H6V13H18V15M19 11.5C19 12.05 18.55 12.5 18 12.5C17.45 12.5 17 12.05 17 11.5C17 10.95 17.45 10.5 18 10.5C18.55 10.5 19 10.95 19 11.5Z" /></symbol>
    <symbol viewBox="0 0 24 24" id="icon-paperclip-straight"><path d="M16.5,6V17.5A4,4 0 0,1 12.5,21.5A4,4 0 0,1 8.5,17.5V5A2.5,2.5 0 0,1 11,2.5A2.5,2.5 0 0,1 13.5,5V15.5A1,1 0 0,1 12.5,16.5A1,1 0 0,1 11.5,15.5V6H10V15.5A2.5,2.5 0 0,0 12.5,18A2.5,2.5 0 0,0 15,15.5V5A4,4 0 0,0 11,1A4,4 0 0,0 7,5V17.5A5.5,5.5 0 0,0 12.5,23A5.5,5.5 0 0,0 18,17.5V6H16.5Z"/></symbol>
    <symbol viewBox="0 0 24 24" id="icon-user-fill"><path d="M19.6638 17.891L17.6639 14.891C17.3003 14.3508 16.691 14.0002 16 14.0002H8.00008C7.30888 14.0004 6.69976 14.351 6.34072 14.8841L6.33616 14.8913L4.33624 17.8913C4.12552 18.2033 4 18.5875 4 19.0013C4 19.3466 4.0876 19.6714 4.24144 19.9548L4.23616 19.9442C4.58032 20.5776 5.24056 21.0002 5.99944 21.0002H18.0004C18.7593 21.0002 19.4193 20.5776 19.7582 19.9548L19.7634 19.9442C19.9125 19.6711 20.0001 19.3459 20.0001 19.0003C20.0001 18.587 19.8746 18.2028 19.6598 17.8841L19.6643 17.8913L19.6638 17.891Z"/><path d="M11.9999 12C14.4851 12 16.4999 9.9852 16.4999 7.5C16.4999 5.0148 14.4851 3 11.9999 3C9.51472 3 7.49992 5.0148 7.49992 7.5C7.49992 9.9852 9.51472 12 11.9999 12Z"/></symbol>
    <symbol viewBox="0 0 24 29" id="icon-checklist"><path d="M10.511 22.1856L18.2806 14.4034L16.6188 12.7416L10.5187 18.8416L7.27766 15.6005L5.6081 17.2701L10.511 22.1856ZM3.74386 28.361C2.93409 28.361 2.24194 28.0737 1.66743 27.4992C1.09292 26.9247 0.805664 26.2325 0.805664 25.4228V3.57735C0.805664 2.76413 1.09292 2.06903 1.66743 1.49205C2.24194 0.915075 2.93409 0.626587 3.74386 0.626587H15.3593L23.2067 8.47395V25.4228C23.2067 26.2325 22.9182 26.9247 22.3412 27.4992C21.7643 28.0737 21.0692 28.361 20.2559 28.361H3.74386ZM13.8337 9.93289V3.57735H3.74386V25.4228H20.2559V9.93289H13.8337Z"/></symbol>
    <symbol viewBox="0 0 24 24" id="icon-order-bool-ascending"><path d="M4 13C2.89 13 2 13.89 2 15V19C2 20.11 2.89 21 4 21H8C9.11 21 10 20.11 10 19V15C10 13.89 9.11 13 8 13M8.2 14.5L9.26 15.55L5.27 19.5L2.74 16.95L3.81 15.9L5.28 17.39M4 3C2.89 3 2 3.89 2 5V9C2 10.11 2.89 11 4 11H8C9.11 11 10 10.11 10 9V5C10 3.89 9.11 3 8 3M4 5H8V9H4M12 5H22V7H12M12 19V17H22V19M12 11H22V13H12Z" /></symbol>
    <symbol viewBox="0 -960 960 960" id="icon-drag-vertical"><path d="M360-160q-33 0-56.5-23.5T280-240q0-33 23.5-56.5T360-320q33 0 56.5 23.5T440-240q0 33-23.5 56.5T360-160Zm240 0q-33 0-56.5-23.5T520-240q0-33 23.5-56.5T600-320q33 0 56.5 23.5T680-240q0 33-23.5 56.5T600-160ZM360-400q-33 0-56.5-23.5T280-480q0-33 23.5-56.5T360-560q33 0 56.5 23.5T440-480q0 33-23.5 56.5T360-400Zm240 0q-33 0-56.5-23.5T520-480q0-33 23.5-56.5T600-560q33 0 56.5 23.5T680-480q0 33-23.5 56.5T600-400ZM360-640q-33 0-56.5-23.5T280-720q0-33 23.5-56.5T360-800q33 0 56.5 23.5T440-720q0 33-23.5 56.5T360-640Zm240 0q-33 0-56.5-23.5T520-720q0-33 23.5-56.5T600-800q33 0 56.5 23.5T680-720q0 33-23.5 56.5T600-640Z"/></symbol>
</svg>