<!-- todo include in muc-patternlab-vue -->
<svg style="display: none;">
    <symbol viewBox="0 0 24 24" id="icon-pencil"><path d="M20.71,7.04C21.1,6.65 21.1,6 20.71,5.63L18.37,3.29C18,2.9 17.35,2.9 16.96,3.29L15.12,5.12L18.87,8.87M3,17.25V21H6.75L17.81,9.93L14.06,6.18L3,17.25Z"/></symbol>
    <symbol viewBox="0 0 24 24" id="icon-dots-vertical"><path d="M12,16A2,2 0 0,1 14,18A2,2 0 0,1 12,20A2,2 0 0,1 10,18A2,2 0 0,1 12,16M12,10A2,2 0 0,1 14,12A2,2 0 0,1 12,14A2,2 0 0,1 10,12A2,2 0 0,1 12,10M12,4A2,2 0 0,1 14,6A2,2 0 0,1 12,8A2,2 0 0,1 10,6A2,2 0 0,1 12,4Z" /></symbol>
    <symbol viewBox="0 0 24 24" id="icon-circle-off-outline"><path d="M22.11 21.46L2.39 1.73L1.11 3L4.06 5.95C2.78 7.63 2 9.72 2 12C2 17.5 6.5 22 12 22C14.28 22 16.37 21.23 18.05 19.94L20.84 22.73L22.11 21.46M12 20C7.58 20 4 16.42 4 12C4 10.27 4.56 8.68 5.5 7.38L16.62 18.5C15.32 19.45 13.73 20 12 20M8.17 4.97L6.72 3.5C8.25 2.56 10.06 2 12 2C17.5 2 22 6.5 22 12C22 13.94 21.44 15.75 20.5 17.28L19.03 15.83C19.65 14.69 20 13.39 20 12C20 7.58 16.42 4 12 4C10.61 4 9.31 4.35 8.17 4.97Z"/></symbol>
    <symbol viewBox="0 0 24 24" id="icon-account"><path d="M12,4A4,4 0 0,1 16,8A4,4 0 0,1 12,12A4,4 0 0,1 8,8A4,4 0 0,1 12,4M12,14C16.42,14 20,15.79 20,18V20H4V18C4,15.79 7.58,14 12,14Z"/></symbol>
</svg>