<svg xmlns="http://www.w3.org/2000/svg" xmlns:xlink="http://www.w3.org/1999/xlink" width="280.798" height="54" viewBox="0 0 280.798 54"><defs><linearGradient id="a" x1="0.5" x2="0.5" y2="1" gradientUnits="objectBoundingBox"><stop offset="0" stop-color="#ffe600"/><stop offset="0.575" stop-color="#ffdc00"/><stop offset="1" stop-color="#ffd300"/></linearGradient></defs><g transform="translate(-305 -93)"><rect width="280.798" height="54" transform="translate(305 93)" fill="none"/><g transform="translate(305.001 93)"><g transform="translate(64.327 6.993)"><path d="M683.682,227.219h2.084a4.742,4.742,0,0,0,3.242-.774,4.2,4.2,0,0,0,1.464-3.4,4.581,4.581,0,0,0-1.238-3.3,4.5,4.5,0,0,0-3.493-1.084H683.68v8.558Zm2.3-6.961a2.514,2.514,0,0,1,2.85,2.757,2.88,2.88,0,0,1-.633,1.953,2.506,2.506,0,0,1-2.027.656h-.859v-5.364h.669v0Zm10.182,6.961h1.584v-6.328h-1.584v.692a2.724,2.724,0,0,0-1.991-.858,3.09,3.09,0,0,0-2.978,3.337,3.149,3.149,0,0,0,3.014,3.324,2.642,2.642,0,0,0,1.955-.833v.667Zm-1.671-5.041a1.73,1.73,0,0,1,1.74,1.86,1.731,1.731,0,1,1-3.447.013,1.727,1.727,0,0,1,1.706-1.873Zm6.771,2.576c.441.215.7.428.7.7s-.31.515-.7.515a1.981,1.981,0,0,1-1.323-.74l-.979,1.074a2.678,2.678,0,0,0,2.217,1.082,2.046,2.046,0,0,0,2.278-1.979c0-.941-.549-1.5-1.609-2.025l-.584-.3c-.346-.167-.574-.287-.574-.525s.251-.382.574-.382a1.627,1.627,0,0,1,1.1.584l.977-.989a2.574,2.574,0,0,0-2.086-1.05,1.908,1.908,0,0,0-2.05,1.825c0,.8.513,1.417,1.525,1.93l.538.278Zm10.488-4.029a3.312,3.312,0,0,0-3.278,3.337,3.319,3.319,0,1,0,6.638-.013,3.325,3.325,0,0,0-3.36-3.324Zm.023,1.5a1.833,1.833,0,0,1,0,3.662,1.691,1.691,0,0,1-1.706-1.837,1.713,1.713,0,0,1,1.706-1.825Zm3.791.013h.572v4.982h1.584v-4.982h1v-1.348h-1c.01-.953-.118-1.274.5-1.274a2.074,2.074,0,0,1,.572.105v-1.215a3.031,3.031,0,0,0-1.12-.226c-1.668,0-1.525,1.192-1.536,2.609h-.572v1.348Zm3.934,0h.572v4.982h1.586v-4.982h1v-1.348h-1c.01-.953-.12-1.274.5-1.274a2.06,2.06,0,0,1,.572.105v-1.215a3.011,3.011,0,0,0-1.12-.226c-1.668,0-1.525,1.192-1.538,2.609H719.5v1.348Zm4.5,4.982h1.584v-6.328h-1.584v6.328Zm.785-8.937a.987.987,0,0,0-1.013.964,1.054,1.054,0,0,0,1.013,1.1,1.013,1.013,0,0,0,1.013-1.013,1.028,1.028,0,0,0-1.013-1.048Zm2.324,3.955h2.417l-2.86,4.982H731.8v-1.346H729.1l2.848-4.982H727.1v1.346Zm5.828,4.982h1.584v-6.328h-1.584v6.328Zm.787-8.937a.987.987,0,0,0-1.012.964,1.056,1.056,0,0,0,1.012,1.1,1.013,1.013,0,0,0,1.012-1.013,1.026,1.026,0,0,0-1.012-1.048Zm6.83,7.079a2.061,2.061,0,0,1-1.576.62,1.7,1.7,0,0,1-1.776-1.468h5.1c0-.143.013-.215.013-.357a3.326,3.326,0,1,0-6.651-.11,3.452,3.452,0,0,0,6.223,1.945l-1.333-.631Zm-3.28-2.1a1.839,1.839,0,0,1,3.445,0Zm6.153,3.955H745v-8.771h-1.584v8.771Zm3.1,0H748.1v-8.771h-1.584v8.771Zm7.615-1.858a2.056,2.056,0,0,1-1.574.62,1.693,1.693,0,0,1-1.776-1.468h5.1c0-.143.013-.215.013-.357a3.327,3.327,0,1,0-6.653-.11,3.452,3.452,0,0,0,6.223,1.945l-1.333-.631Zm-3.278-2.1a1.839,1.839,0,0,1,3.445,0Zm10.047,2.312a2.913,2.913,0,0,0,2.753,1.858A2.419,2.419,0,0,0,766.276,225c0-1.561-1.274-2.23-2.871-3.637-.251-.213-.5-.428-.5-.761a.644.644,0,0,1,.726-.6,1.679,1.679,0,0,1,1.289.882l1.215-1.074a3.19,3.19,0,0,0-2.479-1.369,2.245,2.245,0,0,0-2.346,2.156c0,1.215,1.048,2.025,2.824,3.516a1.333,1.333,0,0,1,.548.953.907.907,0,0,1-.989.8c-.572,0-1.025-.382-1.417-1.12l-1.373.825Zm6.948-4.685h-.81v1.358h.81v4.972h1.586V222.25h.941v-1.358h-.941v-2.335H767.85v2.335Zm8.07,6.328H777.5v-6.328H775.92v.692a2.721,2.721,0,0,0-1.993-.858,3.091,3.091,0,0,0-2.978,3.337,3.149,3.149,0,0,0,3.014,3.324,2.635,2.635,0,0,0,1.955-.833v.667Zm-1.668-5.041a1.73,1.73,0,0,1,1.74,1.86,1.73,1.73,0,1,1-3.445.013,1.723,1.723,0,0,1,1.7-1.873Zm9.416,5.041h1.586v-8.771h-1.586v3.134a2.717,2.717,0,0,0-1.991-.858,3.092,3.092,0,0,0-2.98,3.337,3.149,3.149,0,0,0,3.014,3.324,2.635,2.635,0,0,0,1.955-.833v.667ZM782,222.178a1.887,1.887,0,1,1-1.707,1.873A1.731,1.731,0,0,1,782,222.178Zm5.28-1.287h-.812v1.358h.812v4.972h1.584V222.25h.941v-1.358h-.941v-2.335h-1.584v2.335Zm5.086,0h-1.584v8.64h1.584v-2.978a2.662,2.662,0,0,0,1.955.833,3.158,3.158,0,0,0,3.027-3.324,3.106,3.106,0,0,0-2.991-3.337,2.728,2.728,0,0,0-1.993.859v-.692Zm1.671,1.287a1.885,1.885,0,0,1,0,3.755,1.754,1.754,0,0,1-1.74-1.9,1.724,1.724,0,0,1,1.74-1.858Zm7.235-1.453a3.331,3.331,0,1,0,3.36,3.324,3.312,3.312,0,0,0-3.36-3.324Zm.025,1.5a1.833,1.833,0,0,1,0,3.662,1.69,1.69,0,0,1-1.706-1.837,1.713,1.713,0,0,1,1.706-1.825Zm5.744-1.333h-1.369v6.328h1.584v-2.563c0-.346,0-.74.013-1.084.034-.93.392-1.455.846-1.455a1.087,1.087,0,0,1,.464.131l.489-1.358a1.507,1.507,0,0,0-.69-.167,1.479,1.479,0,0,0-1.335.966v-.8Zm3.483,0h-.81v1.358h.81v4.972h1.584V222.25h.941v-1.358h-.941v-2.335h-1.584v2.335Zm8.066,6.328h1.586v-6.328h-1.586v.692a2.717,2.717,0,0,0-1.991-.858,3.093,3.093,0,0,0-2.98,3.337,3.149,3.149,0,0,0,3.014,3.324,2.635,2.635,0,0,0,1.955-.833v.667Zm-1.666-5.041a1.887,1.887,0,1,1-1.706,1.873,1.731,1.731,0,0,1,1.706-1.873Zm4.816,5.041h1.582v-8.771h-1.582v8.771Z" transform="translate(-613.554 -183.727)" fill="#fff"/><path d="M561.282,70.729V70c0-7.284-5.505-10.484-9.216-10.484a9.826,9.826,0,0,0,0,19.653,10.615,10.615,0,0,0,8.26-4.546L557.1,72.735a6.239,6.239,0,0,1-5.141,2.888,5.449,5.449,0,0,1-5.438-4.9h14.763Zm-4.48-3.31H546.516a5.118,5.118,0,0,1,5.035-4.358c2.424,0,4.44,1.5,5.25,4.358ZM535.482,78.669H539.3V54.47h-3.818v7.819h-.072a6.645,6.645,0,0,0-5.657-2.774,9.293,9.293,0,0,0-9.456,8.642,6.392,6.392,0,0,1,4.052.209c.437-2.327,1.806-4.972,5.7-5.073,3.008-.078,5.579,2.7,5.579,6.05a5.92,5.92,0,0,1-5.579,6.052,3.9,3.9,0,0,1-1.584-.382,6.448,6.448,0,0,1-1.65,3.746,10.067,10.067,0,0,0,2.755.413,7.162,7.162,0,0,0,5.839-2.776h.072v2.272Zm-25.042,0h3.843V67.343c0-4.655-3.185-7.952-6.946-7.952a6.229,6.229,0,0,0-5.474,2.871h-.074V59.9h-3.845V78.671h3.845V68.16c0-3.065,1.922-4.736,4.4-4.736,2.55,0,4.252,1.4,4.252,4.811V78.669Zm-29.459-7.94h14.757V70c0-7.284-5.507-10.484-9.214-10.484a9.826,9.826,0,0,0,0,19.653,10.625,10.625,0,0,0,8.262-4.546l-3.236-1.888a6.235,6.235,0,0,1-5.138,2.888,5.438,5.438,0,0,1-5.432-4.894Zm0-3.31a5.108,5.108,0,0,1,5.027-4.358c2.422,0,4.444,1.5,5.254,4.358ZM470.923,78.669h3.82V67.417c0-4.626-3.16-7.9-6.906-7.9a6.187,6.187,0,0,0-5.432,2.852h-.076v-7.9h-3.818v24.2h3.818V68.225c0-3.042,1.907-4.7,4.368-4.7,2.533,0,4.223,1.388,4.223,4.778V78.669Zm-27.571-9.328a5.808,5.808,0,0,1,5.765-6.05,5.243,5.243,0,0,1,4.626,2.812l3.339-2.08a9.084,9.084,0,0,0-7.965-4.51,9.826,9.826,0,0,0,0,19.653,9.41,9.41,0,0,0,7.965-4.508l-3.339-2.08a5.26,5.26,0,0,1-4.626,2.812,5.8,5.8,0,0,1-5.765-6.05Zm-9.475,9.328h3.843V67.343c0-4.655-3.179-7.952-6.95-7.952a6.228,6.228,0,0,0-5.472,2.871h-.076V59.9h-3.843V78.671h3.843V68.16c0-3.065,1.926-4.736,4.4-4.736,2.552,0,4.255,1.4,4.255,4.811V78.669Zm-29.221-7.94h14.761V70c0-7.284-5.505-10.484-9.218-10.484a9.826,9.826,0,0,0,0,19.653,10.622,10.622,0,0,0,8.264-4.546l-3.234-1.888a6.238,6.238,0,0,1-5.138,2.888,5.441,5.441,0,0,1-5.436-4.894Zm0-3.31a5.111,5.111,0,0,1,5.033-4.358c2.419,0,4.442,1.5,5.25,4.358Zm-6.24,3.388V60.02H394.6V70.463a4.313,4.313,0,1,1-8.591,0V60.02h-3.816V70.807a8.117,8.117,0,1,0,16.227,0Zm-22.155,7.862h3.82V67.881a8.147,8.147,0,0,0-14.426-5.4,7.784,7.784,0,0,0-2.019-1.77l-.025-.015a7.608,7.608,0,0,0-.709-.378l-.165-.074c-.2-.089-.4-.171-.61-.243-.078-.027-.154-.053-.234-.078-.19-.061-.384-.114-.578-.16-.089-.021-.175-.044-.264-.061-.2-.042-.4-.072-.6-.1-.084-.011-.167-.027-.251-.036a8.3,8.3,0,0,0-.858-.046,8.016,8.016,0,0,0-8.113,8.364V78.671h3.818V68.227a4.313,4.313,0,1,1,8.591,0V78.671h4.029V68.227a4.313,4.313,0,1,1,8.591,0V78.669Z" transform="translate(-351.23 -54.47)" fill="#fff"/><g transform="translate(165.89 14.903)"><path d="M1142.57,134.9a4.889,4.889,0,1,0-4.89-4.889,4.89,4.89,0,0,0,4.89,4.889Z" transform="translate(-1137.68 -125.12)" fill="url(#a)"/></g></g><g transform="translate(0 0)"><circle cx="25.125" cy="25.125" r="25.125" transform="translate(1.875 1.875)" fill="url(#a)"/><g transform="translate(1.42 35.663)"><path d="M78.58,208.727a27.01,27.01,0,0,0,25.58-18.337H53A27.01,27.01,0,0,0,78.58,208.727Z" transform="translate(-53 -190.39)" fill="#005a9f"/></g><path d="M54.208,97.473h48.823a27.34,27.34,0,0,0,1.158-2.852H96.547V90.333l-.162-1.888h-.07l-.2,1.93v.774l-.6-.943V85.6l-.152-1.785h-.1l-.179,1.38-.51-.4L93.313,74.433a.586.586,0,0,0,.413-.559.542.542,0,0,0-.076-.27l.409-.525-.08-.095-.635.346-.086-.036a.288.288,0,0,0,.167-.262.292.292,0,1,0-.416.262l-.089.036-.633-.346-.078.095.407.525a.57.57,0,0,0,.34.829L91.7,84.788l-.51.4-.181-1.38H90.9L90.748,85.6v4.609l-.6.943v-.774l-.2-1.93h-.072l-.165,1.888v4.288h-8.6V92.944l-.776-.764V86.262l-.19-.31V80.586l-.278-.519v-.778l.12-.137-.105-.257V76.352a3.479,3.479,0,0,0,.548-1.869,3.914,3.914,0,0,0-3.693-3.74c-.266-.158-.329-.639-.346-.941a.413.413,0,1,0-.181,0c-.013.3-.076.783-.342.941a3.912,3.912,0,0,0-3.691,3.74,3.494,3.494,0,0,0,.544,1.869v2.542l-.1.257.122.137v.778l-.276.519v5.366l-.192.31v5.919l-.724.707-.724-.707V86.262l-.192-.31V80.586l-.276-.519v-.778l.122-.137-.1-.257V76.352a3.513,3.513,0,0,0,.544-1.869,3.913,3.913,0,0,0-3.691-3.74c-.268-.158-.329-.639-.346-.941a.413.413,0,1,0-.181,0c-.017.3-.078.783-.344.941h0a3.915,3.915,0,0,0-3.691,3.74,3.5,3.5,0,0,0,.546,1.869v2.542l-.1.257.122.137v.778l-.278.519v5.366l-.19.31v5.919l-.778.764v1.677H53.05A26.885,26.885,0,0,0,54.208,97.473Zm41.225-5.322.3-.519.3.519V93.16h-.6Zm-.793-6.938.384.3v.629H94.64ZM92.856,73.823a.275.275,0,1,1,.551,0,.275.275,0,1,1-.551,0ZM91.242,85.515l.382-.3v.93h-.382ZM90.23,92.151l.3-.519.3.519v1.01h-.6v-1.01Z" transform="translate(-51.62 -58.927)" fill="#005a9f"/><path d="M73.27,21.32a27,27,0,1,0,27,27A27,27,0,0,0,73.27,21.32Zm0,52.124A25.125,25.125,0,1,1,98.394,48.32,25.125,25.125,0,0,1,73.27,73.444Z" transform="translate(-46.27 -21.32)" fill="#009adf"/></g></g></g></svg>