<!-- todo include in muc-patternlab-vue -->
<svg style="display: none;">
    <symbol viewBox="0 0 24 24" id="icon-pencil"><path d="M20.71,7.04C21.1,6.65 21.1,6 20.71,5.63L18.37,3.29C18,2.9 17.35,2.9 16.96,3.29L15.12,5.12L18.87,8.87M3,17.25V21H6.75L17.81,9.93L14.06,6.18L3,17.25Z"/></symbol>
    <symbol viewBox="0 0 24 24" id="icon-dots-vertical"><path d="M12,16A2,2 0 0,1 14,18A2,2 0 0,1 12,20A2,2 0 0,1 10,18A2,2 0 0,1 12,16M12,10A2,2 0 0,1 14,12A2,2 0 0,1 12,14A2,2 0 0,1 10,12A2,2 0 0,1 12,10M12,4A2,2 0 0,1 14,6A2,2 0 0,1 12,8A2,2 0 0,1 10,6A2,2 0 0,1 12,4Z" /></symbol>
    <symbol viewBox="0 0 24 24" id="icon-circle-off-outline"><path d="M22.11 21.46L2.39 1.73L1.11 3L4.06 5.95C2.78 7.63 2 9.72 2 12C2 17.5 6.5 22 12 22C14.28 22 16.37 21.23 18.05 19.94L20.84 22.73L22.11 21.46M12 20C7.58 20 4 16.42 4 12C4 10.27 4.56 8.68 5.5 7.38L16.62 18.5C15.32 19.45 13.73 20 12 20M8.17 4.97L6.72 3.5C8.25 2.56 10.06 2 12 2C17.5 2 22 6.5 22 12C22 13.94 21.44 15.75 20.5 17.28L19.03 15.83C19.65 14.69 20 13.39 20 12C20 7.58 16.42 4 12 4C10.61 4 9.31 4.35 8.17 4.97Z"/></symbol>
    <symbol viewBox="0 0 24 24" id="icon-account"><path d="M12,4A4,4 0 0,1 16,8A4,4 0 0,1 12,12A4,4 0 0,1 8,8A4,4 0 0,1 12,4M12,14C16.42,14 20,15.79 20,18V20H4V18C4,15.79 7.58,14 12,14Z"/></symbol>
    <symbol viewBox="0 0 24 24" id="icon-copy"><path d="M8.40952 18.7936C7.80219 18.7936 7.28308 18.5782 6.8522 18.1473C6.42131 17.7164 6.20587 17.1973 6.20587 16.59V3.53922C6.20587 2.9293 6.42131 2.40799 6.8522 1.97527C7.28308 1.54254 7.80219 1.32617 8.40952 1.32617H18.4603C19.0702 1.32617 19.5915 1.54254 20.0242 1.97527C20.457 2.40799 20.6733 2.9293 20.6733 3.53922V16.59C20.6733 17.1973 20.457 17.7164 20.0242 18.1473C19.5915 18.5782 19.0702 18.7936 18.4603 18.7936H8.40952ZM8.40952 16.59H18.4603V3.53922H8.40952V16.59ZM4.53922 22.6733C3.9293 22.6733 3.40798 22.457 2.97525 22.0242C2.54253 21.5915 2.32617 21.0702 2.32617 20.4603V5.20587H4.53922V20.4603H16.7936V22.6733H4.53922Z"/></symbol>
    <symbol viewBox="0 0 24 24" id="icon-printer"><path d="M19 8C20.66 8 22 9.34 22 11V17H18V21H6V17H2V11C2 9.34 3.34 8 5 8H6V3H18V8H19M8 5V8H16V5H8M16 19V15H8V19H16M18 15H20V11C20 10.45 19.55 10 19 10H5C4.45 10 4 10.45 4 11V15H6V13H18V15M19 11.5C19 12.05 18.55 12.5 18 12.5C17.45 12.5 17 12.05 17 11.5C17 10.95 17.45 10.5 18 10.5C18.55 10.5 19 10.95 19 11.5Z" /></symbol>
    <symbol viewBox="0 0 24 24" id="icon-paperclip-straight"><path d="M16.5,6V17.5A4,4 0 0,1 12.5,21.5A4,4 0 0,1 8.5,17.5V5A2.5,2.5 0 0,1 11,2.5A2.5,2.5 0 0,1 13.5,5V15.5A1,1 0 0,1 12.5,16.5A1,1 0 0,1 11.5,15.5V6H10V15.5A2.5,2.5 0 0,0 12.5,18A2.5,2.5 0 0,0 15,15.5V5A4,4 0 0,0 11,1A4,4 0 0,0 7,5V17.5A5.5,5.5 0 0,0 12.5,23A5.5,5.5 0 0,0 18,17.5V6H16.5Z"/></symbol>
</svg>